<?xml version="1.0"?>
<svg xmlns="http://www.w3.org/2000/svg" xmlns:xlink="http://www.w3.org/1999/xlink" xmlns:svgjs="http://svgjs.com/svgjs" version="1.1" width="512" height="512" x="0" y="0" viewBox="0 0 512.001 512.001" style="enable-background:new 0 0 512 512" xml:space="preserve"><g>
<g xmlns="http://www.w3.org/2000/svg">
	<g>
		<path d="M391.934,80.667h-18.829V50.64H0v264.952c0,80.377,65.391,145.768,145.768,145.768h81.571    c78.634,0,142.914-62.588,145.665-140.564h18.932c66.204,0,120.066-53.862,120.066-120.067S458.138,80.667,391.934,80.667z     M343.104,315.594c0,63.834-51.932,115.766-115.766,115.766h-81.571c-63.833,0-115.765-51.932-115.765-115.766V80.642h313.103    V315.594z M373.105,170.671h18.829c16.576,0,30.061,13.486,30.061,30.062s-13.486,30.061-30.061,30.061h-18.829V170.671z     M391.934,290.797h-18.829v-30.001h18.829c33.119,0,60.063-26.943,60.063-60.063c0-33.12-26.944-60.064-60.063-60.064h-18.829    v-30.001h18.829c49.661,0,90.064,40.402,90.064,90.064S441.596,290.797,391.934,290.797z" fill="#d9df21" data-original="#000000" style=""/>
	</g>
</g>
<g xmlns="http://www.w3.org/2000/svg">
</g>
<g xmlns="http://www.w3.org/2000/svg">
</g>
<g xmlns="http://www.w3.org/2000/svg">
</g>
<g xmlns="http://www.w3.org/2000/svg">
</g>
<g xmlns="http://www.w3.org/2000/svg">
</g>
<g xmlns="http://www.w3.org/2000/svg">
</g>
<g xmlns="http://www.w3.org/2000/svg">
</g>
<g xmlns="http://www.w3.org/2000/svg">
</g>
<g xmlns="http://www.w3.org/2000/svg">
</g>
<g xmlns="http://www.w3.org/2000/svg">
</g>
<g xmlns="http://www.w3.org/2000/svg">
</g>
<g xmlns="http://www.w3.org/2000/svg">
</g>
<g xmlns="http://www.w3.org/2000/svg">
</g>
<g xmlns="http://www.w3.org/2000/svg">
</g>
<g xmlns="http://www.w3.org/2000/svg">
</g>
</g></svg>
